<svg id="visual" viewBox="0 0 900 450" width="900" height="450" xmlns="http://www.w3.org/2000/svg" xmlns:xlink="http://www.w3.org/1999/xlink" version="1.1"><path d="M0 171L13.7 169.5C27.3 168 54.7 165 82 167.5C109.3 170 136.7 178 163.8 180.8C191 183.7 218 181.3 245.2 176C272.3 170.7 299.7 162.3 327 159.8C354.3 157.3 381.7 160.7 409 164.7C436.3 168.7 463.7 173.3 491 173C518.3 172.7 545.7 167.3 573 168.5C600.3 169.7 627.7 177.3 654.8 176.8C682 176.3 709 167.7 736.2 168.2C763.3 168.7 790.7 178.3 818 180.8C845.3 183.3 872.7 178.7 886.3 176.3L900 174L900 0L886.3 0C872.7 0 845.3 0 818 0C790.7 0 763.3 0 736.2 0C709 0 682 0 654.8 0C627.7 0 600.3 0 573 0C545.7 0 518.3 0 491 0C463.7 0 436.3 0 409 0C381.7 0 354.3 0 327 0C299.7 0 272.3 0 245.2 0C218 0 191 0 163.8 0C136.7 0 109.3 0 82 0C54.7 0 27.3 0 13.7 0L0 0Z" fill="#cdd5e2"></path><path d="M0 109L13.7 113C27.3 117 54.7 125 82 126.3C109.3 127.7 136.7 122.3 163.8 121.8C191 121.3 218 125.7 245.2 124.7C272.3 123.7 299.7 117.3 327 115C354.3 112.7 381.7 114.3 409 113.3C436.3 112.3 463.7 108.7 491 106.2C518.3 103.7 545.7 102.3 573 106.3C600.3 110.3 627.7 119.7 654.8 123.2C682 126.7 709 124.3 736.2 124.7C763.3 125 790.7 128 818 126C845.3 124 872.7 117 886.3 113.5L900 110L900 0L886.3 0C872.7 0 845.3 0 818 0C790.7 0 763.3 0 736.2 0C709 0 682 0 654.8 0C627.7 0 600.3 0 573 0C545.7 0 518.3 0 491 0C463.7 0 436.3 0 409 0C381.7 0 354.3 0 327 0C299.7 0 272.3 0 245.2 0C218 0 191 0 163.8 0C136.7 0 109.3 0 82 0C54.7 0 27.3 0 13.7 0L0 0Z" fill="#dee6f0"></path><path d="M0 58L13.7 58.3C27.3 58.7 54.7 59.3 82 62.3C109.3 65.3 136.7 70.7 163.8 72.7C191 74.7 218 73.3 245.2 73.3C272.3 73.3 299.7 74.7 327 75.3C354.3 76 381.7 76 409 76.7C436.3 77.3 463.7 78.7 491 77.5C518.3 76.3 545.7 72.7 573 68.7C600.3 64.7 627.7 60.3 654.8 60.8C682 61.3 709 66.7 736.2 66.7C763.3 66.7 790.7 61.3 818 59.8C845.3 58.3 872.7 60.7 886.3 61.8L900 63L900 0L886.3 0C872.7 0 845.3 0 818 0C790.7 0 763.3 0 736.2 0C709 0 682 0 654.8 0C627.7 0 600.3 0 573 0C545.7 0 518.3 0 491 0C463.7 0 436.3 0 409 0C381.7 0 354.3 0 327 0C299.7 0 272.3 0 245.2 0C218 0 191 0 163.8 0C136.7 0 109.3 0 82 0C54.7 0 27.3 0 13.7 0L0 0Z" fill="#f0f8ff"></path></svg>